<?xml version="1.0" standalone="no"?>
<!DOCTYPE svg PUBLIC "-//W3C//DTD SVG 20010904//EN"
 "http://www.w3.org/TR/2001/REC-SVG-20010904/DTD/svg10.dtd">
<svg version="1.0" xmlns="http://www.w3.org/2000/svg"
 width="771.000000pt" height="771.000000pt" viewBox="0 0 771.000000 771.000000"
 preserveAspectRatio="xMidYMid meet">
<metadata>
Created by potrace 1.14, written by Peter Selinger 2001-2017
</metadata>
<g transform="translate(0.000000,771.000000) scale(0.100000,-0.100000)"
fill="#000000" stroke="none">
<path d="M840 5565 l0 -105 190 0 190 0 0 -540 0 -540 130 0 130 0 0 540 0
540 190 0 190 0 0 105 0 105 -510 0 -510 0 0 -105z"/>
<path d="M2020 5025 l0 -645 130 0 130 0 0 270 0 270 61 0 c150 0 187 -30 359
-294 19 -29 48 -73 65 -97 16 -24 34 -51 40 -60 5 -9 21 -32 35 -52 l25 -37
153 0 c83 0 152 4 152 9 0 5 -7 14 -15 21 -8 7 -15 16 -15 21 0 8 -40 72 -59
95 -5 6 -16 24 -25 40 -9 16 -25 43 -36 59 -11 17 -24 39 -29 50 -5 12 -16 27
-25 34 -9 7 -16 18 -16 23 0 34 -159 193 -209 209 -8 3 15 13 50 23 127 36
199 92 244 188 21 46 25 68 25 157 0 95 -2 108 -31 166 -32 66 -70 107 -134
144 -65 38 -199 50 -557 51 l-318 0 0 -645z m689 414 c65 -30 84 -60 89 -137
4 -55 1 -67 -23 -102 -46 -67 -73 -74 -297 -78 l-198 -4 0 171 0 171 191 0
c174 0 195 -2 238 -21z"/>
<path d="M3320 5025 l0 -645 485 0 485 0 0 110 0 110 -360 0 -360 0 0 180 0
180 325 0 325 0 0 105 0 105 -325 0 -325 0 0 145 0 145 345 0 345 0 0 105 0
105 -470 0 -470 0 0 -645z"/>
<path d="M4510 5025 l0 -645 115 0 115 0 0 421 c0 281 3 418 10 414 6 -4 19
-23 30 -43 12 -20 29 -50 40 -67 10 -16 27 -45 36 -62 9 -18 20 -33 24 -33 4
0 10 -8 13 -17 4 -10 17 -36 31 -58 14 -22 33 -53 42 -70 9 -16 20 -32 23 -35
7 -6 28 -41 48 -82 8 -15 18 -30 23 -33 4 -3 20 -28 35 -57 15 -29 31 -55 35
-58 4 -3 15 -18 24 -35 9 -16 28 -48 42 -70 14 -22 27 -48 31 -57 3 -10 9 -18
13 -18 5 0 12 -9 15 -20 6 -19 15 -20 141 -20 l134 0 0 645 0 645 -125 0 -125
0 -2 -427 c-3 -352 -5 -424 -16 -403 -7 14 -23 43 -37 65 -14 22 -29 49 -34
60 -5 12 -16 27 -25 34 -9 7 -16 18 -16 24 0 6 -6 18 -14 26 -7 9 -24 36 -37
61 -13 25 -27 47 -30 50 -3 3 -14 21 -24 40 -10 19 -21 37 -25 40 -3 3 -17 25
-31 50 -13 25 -34 61 -47 80 -12 19 -27 42 -32 50 -5 8 -20 31 -32 50 -13 19
-34 55 -47 80 -13 25 -29 51 -35 59 -5 7 -15 23 -21 35 -10 20 -19 21 -138 24
l-127 3 0 -646z"/>
<path d="M5790 5024 l0 -645 318 4 c280 4 325 6 382 24 86 26 160 60 160 73 0
5 5 10 10 10 21 0 93 87 128 155 57 110 81 216 81 370 0 130 -4 162 -32 266
-40 149 -138 278 -252 334 -91 44 -189 55 -512 55 l-283 0 0 -646z m633 406
c130 -52 182 -168 181 -405 -1 -228 -45 -342 -154 -397 -53 -27 -58 -28 -227
-28 l-173 0 0 431 0 431 158 -4 c133 -4 166 -9 215 -28z"/>
<path d="M850 2901 l0 -1061 210 0 210 0 0 440 0 440 81 0 c222 0 315 -42 420
-190 77 -109 124 -177 134 -192 6 -9 25 -37 43 -62 17 -26 32 -51 32 -57 0 -5
4 -9 8 -9 4 0 16 -15 27 -32 10 -18 21 -35 24 -38 3 -3 11 -12 16 -21 6 -10
25 -38 43 -63 17 -26 32 -51 32 -56 0 -4 3 -10 8 -12 4 -1 29 -36 56 -75 l48
-73 254 0 c140 0 254 4 254 8 0 4 -5 13 -11 19 -12 12 -25 34 -54 91 -10 17
-21 32 -26 32 -5 0 -9 4 -9 10 0 5 -16 34 -35 64 -19 30 -35 60 -35 66 0 5 -4
10 -8 10 -5 0 -15 12 -23 28 -15 30 -70 114 -79 122 -3 3 -14 22 -25 43 -11
21 -28 47 -37 57 -10 11 -18 22 -18 25 0 8 -63 89 -72 93 -5 2 -8 10 -8 18 0
8 -7 17 -15 20 -8 4 -15 11 -15 18 0 6 -21 29 -47 51 -26 22 -55 48 -65 58
-10 10 -44 34 -75 54 l-56 36 84 24 c109 32 172 60 234 102 55 37 104 82 105
94 0 4 8 16 17 27 17 18 41 63 79 145 14 31 19 72 22 183 3 128 1 151 -19 215
-13 40 -31 84 -41 99 -10 14 -18 31 -18 36 0 18 -155 172 -173 172 -9 0 -17 4
-17 9 0 4 -30 19 -67 31 -137 47 -202 52 -815 57 l-578 4 0 -1060z m1126 673
c52 -18 114 -62 114 -81 0 -7 4 -13 9 -13 19 0 36 -69 36 -150 0 -81 -17 -150
-36 -150 -5 0 -9 -4 -9 -10 0 -19 -48 -57 -101 -79 -52 -23 -67 -24 -386 -29
l-333 -5 0 267 0 266 330 0 c276 0 337 -3 376 -16z"/>
<path d="M3100 2900 l0 -1060 815 0 815 0 0 180 0 180 -595 0 -595 0 0 285 0
285 530 0 530 0 0 180 0 180 -530 0 -530 0 0 230 0 230 575 0 575 0 0 185 0
185 -795 0 -795 0 0 -1060z"/>
<path d="M5203 3248 c4 -738 10 -869 51 -999 16 -54 66 -149 78 -149 4 0 8 -6
8 -12 1 -16 63 -82 121 -130 62 -51 178 -106 273 -131 72 -19 109 -22 326 -22
224 0 252 2 324 22 242 69 393 203 460 406 47 143 50 196 53 985 l4 742 -215
0 -216 0 -1 -632 c-1 -761 -6 -902 -38 -973 -13 -27 -31 -58 -40 -67 -9 -10
-25 -27 -36 -39 -11 -11 -47 -35 -80 -52 -59 -30 -63 -31 -205 -31 -139 -1
-148 0 -210 28 -36 16 -69 35 -73 42 -4 8 -13 14 -20 14 -21 1 -85 94 -106
155 -21 58 -21 76 -21 807 l0 748 -221 0 -220 0 4 -712z"/>
</g>
</svg>
